Coordinates
version=1
nRows=14
nColumns=24
inDegrees=yes

Units are S.I. units (second, meters, Newtons, ...)
Angles are in degrees.

endheader
time	pelvis_tilt	pelvis_list	pelvis_rotation	pelvis_tx	pelvis_ty	pelvis_tz	hip_flexion_r	hip_adduction_r	hip_rotation_r	knee_angle_r	ankle_angle_r	subtalar_angle_r	mtp_angle_r	hip_flexion_l	hip_adduction_l	hip_rotation_l	knee_angle_l	ankle_angle_l	subtalar_angle_l	mtp_angle_l	lumbar_extension	lumbar_bending	lumbar_rotation
      5.30000000	     -2.81157978	      5.30270833	     -5.80537817	      0.08517139	      0.96019392	     -0.01705760	     11.60420870	     -6.96651494	      7.71662170	    -55.89816392	     -3.98751103	      0.00000000	      0.00000000	     12.53336838	      7.91229822	     -3.63305307	    -13.73156294	     10.84142048	      0.00000000	      0.00000000	     -3.30449896	     -5.27717129	      7.92448951
      5.31000000	     -2.67751763	      5.25715680	     -5.83917296	      0.08411517	      0.96066524	     -0.01814037	     12.75563692	     -7.26205743	      7.23343294	    -56.54907464	     -2.31831949	      0.00000000	      0.00000000	     11.86333853	      8.04492703	     -3.48816206	    -13.58647993	     11.17631322	      0.00000000	      0.00000000	     -3.49042235	     -5.19136371	      7.62376247
      5.32000000	     -2.55756774	      5.18098011	     -5.87314929	      0.08301673	      0.96114799	     -0.01915725	     13.87042131	     -7.49757968	      6.79316887	    -56.94004143	     -0.67605022	      0.00000000	      0.00000000	     11.22200901	      8.13694597	     -3.33826002	    -13.46085860	     11.50527331	      0.00000000	      0.00000000	     -3.66484686	     -5.07089681	      7.34145964
      5.33000000	     -2.44994068	      5.09005946	     -5.91599860	      0.08184638	      0.96159918	     -0.02011395	     14.95771707	     -7.69247007	      6.38658855	    -57.07703790	      0.93617083	      0.00000000	      0.00000000	     10.61991209	      8.20770429	     -3.16547998	    -13.39366204	     11.81123526	      0.00000000	      0.00000000	     -3.83216584	     -4.92889249	      7.09845469
      5.34000000	     -2.37368899	      4.96311140	     -5.94356544	      0.08056449	      0.96200451	     -0.02102354	     16.02364934	     -7.79800251	      6.04258336	    -56.95473868	      2.45258050	      0.00000000	      0.00000000	     10.05234547	      8.23315260	     -3.00424569	    -13.31713683	     12.13158007	      0.00000000	      0.00000000	     -3.98447165	     -4.74425885	      6.86982212
      5.35000000	     -2.31182399	      4.80603069	     -6.00564475	      0.07931074	      0.96238365	     -0.02178491	     17.06563293	     -7.82672775	      5.74173891	    -56.60918762	      3.83771127	      0.00000000	      0.00000000	      9.50490050	      8.21115883	     -2.85225473	    -13.26736119	     12.44588547	      0.00000000	      0.00000000	     -4.10428409	     -4.53119573	      6.65547243
      5.36000000	     -2.27335747	      4.63393434	     -6.06552354	      0.07793828	      0.96271274	     -0.02245124	     18.08311949	     -7.78977011	      5.48231302	    -56.02555818	      5.10149567	      0.00000000	      0.00000000	      8.99621019	      8.16253789	     -2.70280251	    -13.23997766	     12.75589887	      0.00000000	      0.00000000	     -4.21900140	     -4.30071121	      6.49379792
      5.37000000	     -2.25937048	      4.45098553	     -6.15244909	      0.07649974	      0.96299473	     -0.02304066	     19.07439826	     -7.70425032	      5.27054863	    -55.18853511	      6.22174452	      0.00000000	      0.00000000	      8.52218932	      8.08815779	     -2.56078209	    -13.21394402	     13.06845524	      0.00000000	      0.00000000	     -4.31748748	     -4.06251012	      6.35249415
      5.38000000	     -2.26528159	      4.26883350	     -6.23967021	      0.07502791	      0.96321761	     -0.02350488	     20.02909966	     -7.56455377	      5.10865228	    -54.14166536	      7.17076067	      0.00000000	      0.00000000	      8.06667239	      8.00686246	     -2.43535424	    -13.19228313	     13.37551936	      0.00000000	      0.00000000	     -4.39823122	     -3.82998166	      6.22473942
      5.39000000	     -2.28549616	      4.06814499	     -6.32860586	      0.07344778	      0.96336040	     -0.02377520	     20.96717203	     -7.35885844	      4.95860920	    -52.92610650	      8.01456458	      0.00000000	      0.00000000	      7.62670621	      7.88242307	     -2.31496229	    -13.16641145	     13.69687827	      0.00000000	      0.00000000	     -4.48547192	     -3.60285856	      6.09960655
      5.40000000	     -2.32515211	      3.87077297	     -6.43987891	      0.07186860	      0.96343095	     -0.02395303	     21.86263346	     -7.12928073	      4.82111005	    -51.50077410	      8.68883879	      0.00000000	      0.00000000	      7.19266350	      7.75165417	     -2.20708649	    -13.11152389	     14.02890954	      0.00000000	      0.00000000	     -4.54317843	     -3.37651676	      5.98727325
      5.41000000	     -2.36576589	      3.53414835	     -6.51186802	      0.07024884	      0.96349960	     -0.02402713	     22.62185242	     -6.73344317	      4.62033958	    -49.81225021	      9.30383421	      0.00000000	      0.00000000	      6.78670429	      7.46405147	     -2.07156523	    -13.15256332	     14.45914344	      0.00000000	      0.00000000	     -4.63613568	     -3.00535361	      5.86876028
      5.42000000	     -2.44141731	      3.36157263	     -6.63620232	      0.06869711	      0.96342618	     -0.02403294	     23.42235245	     -6.49047619	      4.47115474	    -48.00961916	      9.55956691	      0.00000000	      0.00000000	      6.33870939	      7.34454839	     -1.97889068	    -12.99350176	     14.80242576	      0.00000000	      0.00000000	     -4.65870484	     -2.81676487	      5.79318785
      5.43000000	     -2.48985298	      3.12940195	     -6.74784050	      0.06711385	      0.96336512	     -0.02395332	     24.07889529	     -6.17892125	      4.27599593	    -45.97433531	      9.65236201	      0.00000000	      0.00000000	      5.88287057	      7.15683233	     -1.87787386	    -12.89308997	     15.14818066	      0.00000000	      0.00000000	     -4.73696477	     -2.57277977	      5.71907066
